<?xml version="1.0" encoding="UTF-8"?>
<svg xmlns="http://www.w3.org/2000/svg" xmlns:xlink="http://www.w3.org/1999/xlink" width="px" height="70px" viewBox="0 0 326 70" version="1.1">
<g id="surface1">
<path style=" stroke:none;fill-rule:nonzero;fill:rgb(100%,100%,100%);fill-opacity:1;" d="M 9.140625 42.105469 C 8.421875 34.878906 9.441406 30.507812 11.9375 25.839844 C 16.207031 17.835938 21.875 13.242188 28.621094 10.988281 C 41.933594 6.578125 56.265625 12.324219 62.914062 23.863281 C 63.03125 24.082031 62.714844 24.203125 62.574219 24.003906 C 57.464844 16.695312 46.726562 10.75 34.390625 16.359375 C 28.800781 18.894531 21.875 25.617188 21.175781 36.558594 C 21.175781 36.558594 17.40625 37.554688 14.96875 38.753906 C 10.859375 40.75 9.140625 42.105469 9.140625 42.105469 "/>
<path style=" stroke:none;fill-rule:nonzero;fill:rgb(100%,100%,100%);fill-opacity:1;" d="M 72.753906 48.691406 C 70.316406 55.300781 60.496094 69.929688 43.3125 69.929688 C 31.554688 69.929688 19.140625 65.058594 12.273438 51.847656 C 12.59375 51.425781 21.015625 46.554688 22.773438 45.417969 C 25.007812 51.347656 29.800781 56.238281 36.246094 58.414062 C 41.777344 60.289062 48.859375 60.050781 53.992188 57.253906 C 70.378906 48.3125 70.417969 27.972656 65.007812 16.957031 C 61.636719 10.089844 55.429688 3.246094 45.726562 0.25 C 44.128906 -0.25 56.105469 -0.449219 67.085938 13.023438 C 73.652344 21.128906 77.5625 35.597656 72.753906 48.691406 "/>
<path style=" stroke:none;fill-rule:nonzero;fill:rgb(100%,100%,100%);fill-opacity:1;" d="M 70.316406 55.21875 C 76.144531 52.664062 83.332031 47.074219 81.457031 42.105469 C 78.28125 33.664062 63.890625 32.125 41.65625 37.175781 C 31.4375 39.511719 22.113281 45.796875 15.570312 49.988281 C 9.160156 54.101562 7.523438 58.929688 11.058594 61.148438 C 11.058594 61.148438 6.367188 63.480469 2.914062 61.765625 C -3.652344 58.53125 1.496094 51.027344 11.957031 44.320312 C 19.160156 39.710938 29.160156 35.796875 40.117188 33.304688 C 61.035156 28.554688 81.15625 31.226562 83.191406 41.90625 C 84.929688 51.066406 70.316406 55.21875 70.316406 55.21875 "/>
<path style=" stroke:none;fill-rule:nonzero;fill:rgb(100%,100%,100%);fill-opacity:1;" d="M 124.527344 18.851562 C 127.082031 19.949219 129.316406 21.449219 131.214844 23.34375 C 133.109375 25.238281 134.609375 27.476562 135.707031 30.03125 C 136.804688 32.585938 137.363281 35.300781 137.363281 38.195312 C 137.363281 41.066406 136.804688 43.78125 135.707031 46.355469 C 134.609375 48.910156 133.109375 51.148438 131.214844 53.042969 C 129.316406 54.941406 127.082031 56.4375 124.527344 57.535156 C 121.972656 58.632812 119.257812 59.191406 116.382812 59.191406 L 98.460938 59.191406 L 106.765625 51.886719 L 116.382812 51.886719 C 118.101562 51.886719 119.738281 51.546875 121.273438 50.867188 C 122.8125 50.1875 124.148438 49.230469 125.285156 48.011719 C 126.425781 46.796875 127.320312 45.339844 127.980469 43.664062 C 128.640625 41.984375 128.980469 40.167969 128.980469 38.214844 C 128.980469 36.296875 128.640625 34.5 127.980469 32.824219 C 127.320312 31.148438 126.425781 29.691406 125.285156 28.472656 C 124.148438 27.253906 122.8125 26.296875 121.273438 25.597656 C 119.738281 24.902344 118.101562 24.542969 116.382812 24.542969 L 106.785156 24.542969 L 106.785156 47.992188 L 98.378906 55.578125 L 98.378906 17.195312 L 116.363281 17.195312 C 119.257812 17.195312 121.972656 17.753906 124.527344 18.851562 "/>
<path style=" stroke:none;fill-rule:nonzero;fill:rgb(100%,100%,100%);fill-opacity:1;" d="M 167.160156 17.195312 L 167.222656 24.203125 L 149.398438 24.203125 L 149.335938 52.207031 L 167.160156 52.207031 L 167.160156 59.152344 L 140.953125 59.152344 L 140.953125 17.195312 Z M 164.085938 42.445312 L 150.835938 42.445312 L 150.835938 34.640625 L 159.917969 34.640625 Z M 164.085938 42.445312 "/>
<path style=" stroke:none;fill-rule:nonzero;fill:rgb(100%,100%,100%);fill-opacity:1;" d="M 242.03125 17.195312 L 242.089844 24.203125 L 224.265625 24.203125 L 224.207031 52.207031 L 242.03125 52.207031 L 242.03125 59.152344 L 215.824219 59.152344 L 215.824219 17.195312 Z M 238.957031 42.445312 L 225.703125 42.445312 L 225.703125 34.640625 L 234.785156 34.640625 Z M 238.957031 42.445312 "/>
<path style=" stroke:none;fill-rule:nonzero;fill:rgb(100%,100%,100%);fill-opacity:1;" d="M 178.957031 17.195312 L 190.414062 45.078125 L 185.644531 55.480469 L 169.914062 17.195312 Z M 204.386719 17.195312 L 213.449219 17.195312 L 196.242188 59.171875 L 187.242188 59.171875 Z M 204.386719 17.195312 "/>
<path style=" stroke:none;fill-rule:nonzero;fill:rgb(100%,100%,100%);fill-opacity:1;" d="M 271.289062 45.378906 C 270.332031 45.816406 269.433594 46.136719 268.617188 46.335938 C 267.796875 46.535156 266.800781 46.675781 265.621094 46.714844 C 264.445312 46.777344 262.988281 46.796875 261.25 46.777344 C 259.515625 46.757812 257.257812 46.757812 254.503906 46.757812 L 254.503906 59.171875 L 246.042969 59.171875 L 246.042969 17.195312 L 265.042969 17.195312 C 267.078125 17.195312 268.996094 17.59375 270.773438 18.375 C 272.546875 19.152344 274.105469 20.210938 275.441406 21.546875 C 276.78125 22.882812 277.835938 24.460938 278.617188 26.277344 C 279.394531 28.09375 279.792969 30.03125 279.792969 32.066406 C 279.792969 35.058594 278.996094 37.734375 277.417969 40.109375 C 275.863281 42.464844 273.804688 44.222656 271.289062 45.378906 M 254.503906 38.375 L 265.0625 38.375 C 266.859375 38.375 268.375 37.734375 269.613281 36.476562 C 270.851562 35.21875 271.46875 33.523438 271.46875 31.40625 C 271.46875 30.527344 271.289062 29.671875 270.972656 28.851562 C 270.632812 28.035156 270.171875 27.296875 269.59375 26.65625 C 269.015625 26.019531 268.335938 25.5 267.558594 25.121094 C 266.78125 24.742188 265.941406 24.5625 265.0625 24.5625 L 254.503906 24.5625 Z M 280.832031 59.171875 L 270.152344 59.171875 L 262.089844 49.230469 L 272.726562 49.171875 Z M 280.832031 59.171875 "/>
<path style=" stroke:none;fill-rule:nonzero;fill:rgb(100%,100%,100%);fill-opacity:1;" d="M 313.90625 51.746094 L 294.703125 51.746094 L 291.53125 59.171875 L 282.546875 59.171875 L 299.753906 17.195312 L 308.792969 17.195312 L 297.71875 44.242188 L 310.832031 44.242188 L 305.820312 32.207031 L 310.609375 21.546875 L 326 59.171875 L 317.019531 59.171875 Z M 313.90625 51.746094 "/>
</g>
</svg>
